<?xml version="1.0" encoding="UTF-8" standalone="no"?>
<!-- Created with Inkscape (http://www.inkscape.org/) -->

<svg
   width="185.96452mm"
   height="180.146mm"
   viewBox="0 0 185.96452 180.146"
   version="1.1"
   id="svg1"
   xmlns="http://www.w3.org/2000/svg"
   xmlns:svg="http://www.w3.org/2000/svg">
  <defs
     id="defs1" />
  <g
     id="layer1"
     transform="translate(-15.87323,-7.7380661)">
    <path
       style="display:inline;fill:#000000;stroke-width:0.226036"
       d="m 105.60874,187.0624 c -3.81337,-1.19987 -20.224802,-5.68506 -37.865812,-10.3486 -10.426022,-2.75621 -14.458352,-3.8694 -16.415816,-4.53187 -0.541722,-0.18333 -1.991744,-0.61755 -3.222271,-0.96492 -2.631066,-0.74273 -3.456665,-1.36043 -1.569769,-1.17447 0.649308,0.064 2.854974,0.17684 4.901479,0.25077 2.046505,0.0739 4.311888,0.18212 5.034183,0.2404 3.853764,0.31095 8.183122,0.57044 9.374427,0.56187 l 1.350573,-0.01 -6.456887,-2.75014 c -3.551288,-1.51258 -8.180549,-3.46848 -10.287245,-4.34646 -2.106696,-0.87797 -5.160038,-2.17089 -6.785203,-2.87316 -2.588719,-1.11863 -7.279801,-3.11913 -10.287245,-4.38698 -1.155613,-0.48716 -1.566232,-0.78241 -1.425617,-1.02506 0.05594,-0.0965 0.338593,-0.14776 0.628122,-0.11387 0.289529,0.0339 3.911611,0.13308 8.049072,0.22041 8.458354,0.17854 8.039972,0.32059 4.786688,-1.62522 -1.595738,-0.95443 -7.620028,-4.73784 -7.848125,-4.92884 -0.04289,-0.0359 0.129654,-3.34528 0.383421,-7.35417 0.253767,-4.00887 0.430949,-7.32134 0.39374,-7.36102 -0.03721,-0.0397 -1.096203,0.82577 -2.353318,1.92323 -3.268152,2.8531 -10.13892,8.72244 -13.338983,11.3948 -1.504782,1.25664 -3.0807,2.58573 -3.50204,2.95354 -2.31763,2.02319 -2.962939,2.55183 -3.114993,2.55183 -0.222751,0 -0.216688,-0.40647 0.0075,-0.50576 0.167877,-0.0744 1.666308,-2.39897 3.811787,-5.91351 3.087592,-5.05785 3.580578,-5.87218 3.781265,-6.24607 0.206895,-0.38546 0.907027,-1.5754 3.398165,-5.77549 2.847074,-4.80022 9.428878,-16.9468 9.915102,-18.29812 0.127802,-0.35518 0.06865,-0.34686 -0.476348,0.067 -0.342248,0.2599 -1.597346,0.9705 -2.789106,1.57912 -2.507231,1.28039 -12.155949,6.98008 -14.740107,8.70728 -0.967132,0.6464 -1.860212,1.17529 -1.984619,1.17529 -0.301443,0 1.625045,-2.94071 7.334929,-11.19646 4.896738,-7.08004 9.330114,-13.59971 11.041545,-16.23756 0.668579,-1.030499 1.484038,-2.238489 1.812133,-2.684429 0.328093,-0.44594 1.55349,-2.28141 2.723104,-4.07881 1.169611,-1.79739 2.206229,-3.303 2.303592,-3.3458 0.386032,-0.16968 0.147913,-0.47297 -0.299232,-0.38114 -1.330642,0.27329 -12.789693,4.64446 -13.254891,5.05621 -0.208642,0.18466 -0.27702,0.12289 -0.27702,-0.25026 0,-0.27249 0.11486,-0.49543 0.255246,-0.49543 0.140384,0 2.381143,-2.29864 4.979464,-5.10809 4.395149,-4.75229 9.641462,-10.125961 16.207291,-16.60075 1.497192,-1.476434 2.881925,-2.84199 3.077182,-3.034568 0.195255,-0.192579 0.741882,-0.710213 1.214724,-1.1503 0.472843,-0.440087 1.25994,-1.185746 1.749107,-1.65702 l 0.889394,-0.856861 -6.361332,-0.159763 c -3.498734,-0.08787 -6.694632,-0.08783 -7.101999,9.5e-5 -1.533863,0.331053 -0.535656,-0.453749 1.955312,-1.537289 5.013557,-2.180834 9.206876,-4.260905 18.81265,-9.331893 2.949374,-1.557007 6.101211,-3.157273 7.00408,-3.556148 0.90287,-0.398877 1.722597,-0.801871 1.821616,-0.895545 0.09902,-0.09368 -0.984428,-0.397146 -2.407654,-0.674382 -2.631258,-0.512553 -3.791513,-0.875111 -3.791513,-1.18478 0,-0.09467 0.517099,-0.386907 1.149108,-0.649421 0.632009,-0.262513 2.606343,-1.117752 4.387409,-1.900531 8.151601,-3.582633 12.670989,-5.093747 20.072155,-6.711382 1.504783,-0.328892 2.94686,-0.649167 3.204615,-0.711724 0.347871,-0.08442 0.692056,0.147695 1.335542,0.900688 4.303393,5.035741 6.241043,7.343072 8.592503,10.231837 1.50478,1.848631 3.42905,4.207467 4.27617,5.24186 2.63554,3.218195 6.01107,7.535179 6.01107,7.687599 0,0.373263 -0.71032,0.04942 -2.28367,-1.041147 -0.94161,-0.652675 -3.89095,-2.580373 -6.55409,-4.28377 -4.70803,-3.011338 -5.78947,-3.68462 -8.175824,-5.090059 -0.629731,-0.370878 -1.201892,-0.772554 -1.271464,-0.892613 -0.325362,-0.56144 -0.509702,-0.135875 -0.209411,0.483432 0.368235,0.759436 2.954159,7.609951 2.954159,7.826045 0,0.07233 -0.41861,-0.17269 -0.930242,-0.544488 -2.132211,-1.549136 -11.057538,-6.480604 -11.286921,-6.235969 -0.06065,0.06468 0.04396,0.302063 0.232461,0.527524 0.188497,0.225462 2.139333,3.456171 4.335191,7.179353 6.488025,11.000757 10.681261,19.136906 10.153121,19.700151 -0.0701,0.07482 -0.53907,-0.338183 -1.042,-0.91783 -1.51408,-1.745009 -6.537684,-6.060476 -7.054959,-6.060476 -0.07046,0 -0.838119,-0.459661 -1.705912,-1.021468 -4.69674,-3.04065 -9.30824,-4.744292 -18.418859,-6.804532 -1.444592,-0.326677 -2.816335,-0.655738 -3.048319,-0.73125 -0.24898,-0.08104 0.289065,0.746609 1.313265,2.020139 3.195127,3.972943 10.910441,14.553312 13.669395,18.745476 0.659071,1.00144 1.469171,2.19762 1.800224,2.65817 0.900182,1.2523 0.772456,1.65673 -0.250374,0.79278 -0.468759,-0.39595 -0.915101,-0.7199 -0.991868,-0.7199 -0.07677,0 -0.850556,-0.56948 -1.719524,-1.2655 -2.858443,-2.28956 -8.103644,-5.01163 -12.633236,-6.556196 -2.765198,-0.942912 -11.030488,-3.117188 -11.202554,-2.946949 -0.320374,0.316965 -2.419902,6.634935 -3.345826,10.068355 -1.714954,6.35923 -3.1791,15.454439 -3.720148,23.109409 -0.06806,0.96289 -0.172224,2.2234 -0.231483,2.80114 -0.149088,1.45352 -0.898203,11.05786 -1.301789,16.69012 -0.345717,4.82469 -0.549833,7.21683 -1.002316,11.74667 -0.151179,1.51345 -0.18191,2.72574 -0.07191,2.83666 0.105654,0.10653 1.571026,0.95559 3.256383,1.8868 1.685356,0.93119 3.431685,1.93937 3.880727,2.2404 0.449043,0.30102 0.866173,0.54732 0.926955,0.54732 0.204859,0 7.188626,4.36291 13.030837,8.14066 3.19014,2.06283 6.422545,4.13044 7.183123,4.59469 2.013872,1.22924 8.49706,5.84717 8.699582,6.19665 0.106343,0.1835 0.361564,-0.50503 0.66307,-1.78878 0.269599,-1.1479 1.089361,-4.39283 1.821692,-7.21095 0.732331,-2.81813 1.33151,-5.35921 1.33151,-5.64686 0,-0.59095 0.397355,-0.9763 0.522792,-0.507 1.220562,4.56653 3.663206,11.29274 5.324719,14.66242 1.456214,2.95334 3.559213,6.46373 4.342283,7.2483 0.50184,0.50279 0.60129,0.52826 0.82644,0.21169 0.14078,-0.19792 0.80324,-1.09078 1.47214,-1.98414 2.78314,-3.71706 5.53802,-9.86107 6.90358,-15.39655 0.91801,-3.72128 1.66132,-7.88348 1.78214,-9.97906 0.0648,-1.12338 0.19571,-2.0425 0.29101,-2.0425 0.34765,0 1.63251,4.75545 3.46879,12.83856 0.5979,2.63191 1.45033,6.36092 1.89428,8.28671 0.44396,1.92578 0.81083,3.6281 0.81528,3.78294 0.0523,1.81986 3.69939,-9.03241 4.32676,-12.87455 0.13718,-0.84013 0.32576,-1.47721 0.41905,-1.41571 0.0933,0.0615 0.37265,0.66506 0.62077,1.34127 0.24814,0.67622 1.20113,3.27781 2.11776,5.78133 2.32109,6.33941 2.27624,6.22517 2.29081,5.83571 0.007,-0.19258 0.1593,-1.50561 0.33799,-2.91785 0.66411,-5.24874 1.25408,-13.84625 1.29336,-18.84804 0.0118,-1.50437 0.10728,-2.507 0.23857,-2.5054 0.12038,0.002 0.58069,0.92 1.0229,2.0412 0.4422,1.1212 1.92768,4.71713 3.30105,7.99096 1.37338,3.27383 2.98023,7.2392 3.57079,8.81192 0.59057,1.57273 1.12706,2.8595 1.19222,2.8595 0.19473,0 1.19284,-6.51078 1.40203,-9.1457 0.0681,-0.8576 0.21686,-2.27568 0.3306,-3.15128 0.24741,-1.90455 0.7178,-8.7107 0.66349,-9.60007 -0.13062,-2.13921 0.19503,-2.49899 0.72761,-0.80385 0.19161,0.60982 0.98467,2.99954 1.76237,5.31049 1.2264,3.64423 3.39484,10.73812 3.71039,12.13827 0.14337,0.6361 1.07643,3.98214 2.90419,10.41468 0.0778,0.27389 -0.17916,0.50759 -0.93793,0.85295 -2.56338,1.16677 -9.47972,3.80291 -15.81935,6.0295 -9.06592,3.18409 -9.68722,3.39826 -13.02321,4.48901 -1.56498,0.51169 -4.02735,1.32016 -5.47195,1.7966 -4.79424,1.58121 -7.79279,2.44487 -8.38688,2.41566 -0.32291,-0.0159 -1.71979,-0.38527 -3.10419,-0.82088 z m -11.600508,-39.531 c -8.301994,-1.81797 -10.367082,-2.53493 -17.890682,-6.21132 -0.389838,-0.19049 -1.321611,-0.59205 -2.070608,-0.89233 -0.748994,-0.30029 -1.392061,-0.64277 -1.429036,-0.76107 -0.139554,-0.4465 7.394077,0.712 10.861619,1.67026 1.782549,0.49261 4.287852,1.49568 6.664912,2.66847 1.065054,0.52548 2.040598,0.88677 2.167875,0.80288 0.127544,-0.0841 0.167673,-0.0425 0.0894,0.0925 -0.12601,0.21744 2.711783,1.68122 5.436876,2.80442 1.134024,0.46742 1.438272,0.76362 0.755126,0.73518 -0.294941,-0.0123 -2.358406,-0.42133 -4.585485,-0.90902 z m 54.500508,-5.52998 c -1.3844,-0.16258 -4.97946,-0.61189 -7.98903,-0.99844 -13.06085,-1.67756 -21.05941,-2.64757 -24.07653,-2.91987 -0.84267,-0.0761 -2.51709,-0.23991 -3.72092,-0.36415 -1.20382,-0.12423 -4.10943,-0.3791 -6.45688,-0.56638 -4.78779,-0.38198 -5.10756,-0.40637 -13.791143,-1.05159 -3.429887,-0.25486 -7.615086,-0.57021 -9.300443,-0.70079 -3.250587,-0.25185 -8.779881,-0.62249 -12.585459,-0.84365 -1.264017,-0.0735 -3.314724,-0.21495 -4.557128,-0.31444 -1.242404,-0.0995 -2.498214,-0.1321 -2.790689,-0.0725 -0.731445,0.14911 -0.680072,-0.35686 0.07014,-0.69081 0.331052,-0.14737 1.32478,-0.61781 2.208284,-1.04542 0.883506,-0.42762 1.696088,-0.77749 1.80574,-0.77749 0.109653,0 0.199369,-0.0875 0.199369,-0.19453 0,-0.10699 0.130855,-0.19453 0.290792,-0.19453 0.521335,0 2.757469,-1.08374 2.643154,-1.28102 -0.0612,-0.1056 0.0266,-0.13558 0.195112,-0.0666 0.168511,0.069 1.478683,-0.41924 2.911495,-1.0849 2.461709,-1.14366 4.672377,-2.12863 10.265823,-4.57397 2.052894,-0.89748 7.567794,-3.38355 8.973978,-4.04538 0.458092,-0.21561 3.220567,-1.46073 7.660715,-3.45288 1.44459,-0.64815 4.35019,-1.90977 6.45689,-2.8036 2.1067,-0.89383 5.98639,-2.55078 8.62156,-3.68211 5.52385,-2.37152 4.3576,-1.44919 12.93788,-10.23202 6.40027,-6.551359 6.71023,-6.889219 6.55933,-7.149619 -0.0688,-0.1188 0.0158,-0.15831 0.18815,-0.0878 0.17849,0.0731 0.50101,-0.12621 0.74941,-0.463 0.23985,-0.32518 0.86729,-0.9778 1.39434,-1.45027 0.52704,-0.47246 0.85976,-0.81603 0.73938,-0.76348 -0.61389,0.26795 -3.40943,1.879 -6.23801,3.59494 -7.68992,4.66502 -11.97352,7.237129 -19.04235,11.434079 -4.1532,2.46586 -8.24074,4.88227 -9.08342,5.36981 -0.84267,0.48754 -1.63063,0.96664 -1.75101,1.06467 -0.58164,0.47363 -14.033006,8.10279 -21.450006,12.16571 -2.528036,1.38482 -4.569364,2.63291 -4.536285,2.77353 0.03307,0.14062 -0.03439,0.19337 -0.149916,0.11722 -0.241556,-0.15922 -1.447157,0.45299 -7.704512,3.91235 -4.41948,2.4433 -5.010051,2.71215 -5.010051,2.28074 0,-0.21042 6.265227,-4.68532 12.284002,-8.77377 3.763786,-2.55666 8.51335,-5.9348 16.115479,-11.46215 3.160109,-2.29765 7.275451,-5.22797 9.145209,-6.51183 1.86975,-1.28385 4.70142,-3.23116 6.2926,-4.32735 1.59119,-1.09617 4.37049,-2.968449 6.17623,-4.160579 6.10102,-4.02788 10.15494,-6.68068 11.59107,-7.58493 0.80638,-0.50773 1.36756,-1.00672 1.28752,-1.14485 -0.0792,-0.13663 -0.0376,-0.17614 0.0939,-0.0894 0.12969,0.0855 1.6962,-0.75389 3.48113,-1.86526 1.78494,-1.11136 3.76081,-2.34168 4.39082,-2.73403 0.80837,-0.50343 1.06603,-0.77472 0.87551,-0.92185 -0.18024,-0.13918 -0.13504,-0.16168 0.13598,-0.0677 0.25442,0.0882 0.86718,-0.15585 1.64159,-0.65391 2.26723,-1.458163 11.9195,-7.341775 14.58715,-8.891718 0.84268,-0.489604 2.71408,-1.59208 4.15867,-2.449946 1.44459,-0.857866 3.51299,-2.060148 4.59643,-2.671737 4.51501,-2.548657 6.42028,-3.744599 6.299,-3.953884 -0.0711,-0.122613 -0.0125,-0.145419 0.13082,-0.05095 0.14314,0.09435 0.82057,-0.167335 1.51124,-0.58378 0.68849,-0.415133 2.1875,-1.279617 3.33114,-1.921079 1.14363,-0.641461 3.06428,-1.746513 4.26811,-2.455672 2.35509,-1.387356 4.86767,-2.831068 8.26782,-4.750632 1.51513,-0.855374 2.05792,-1.270242 1.86046,-1.422015 -0.19267,-0.148094 -0.15194,-0.170208 0.13186,-0.07159 0.26979,0.09376 1.20821,-0.327005 2.73596,-1.226745 1.27893,-0.753199 3.2869,-1.918343 4.46214,-2.589208 1.17525,-0.670869 2.08122,-1.315712 2.01325,-1.43299 -0.0679,-0.117276 0.007,-0.159473 0.16834,-0.09377 0.16054,0.0657 1.32297,-0.478574 2.58318,-1.209508 3.41987,-1.983565 3.93975,-2.253754 4.06976,-2.115106 0.0653,0.06963 -0.52997,0.670228 -1.32276,1.334683 -0.79658,0.667621 -1.37718,1.318984 -1.2978,1.455962 0.079,0.136325 0.0441,0.182242 -0.0776,0.102036 -0.12168,-0.0802 -0.95685,0.455039 -1.85592,1.189432 -5.23045,4.272416 -7.16142,5.969474 -7.03686,6.184416 0.0797,0.137517 0.034,0.171766 -0.10607,0.07946 -0.28675,-0.189003 -0.27636,-0.197403 -11.65648,9.417151 -1.75412,1.481976 -5.25069,4.424725 -7.77015,6.539444 -9.31212,7.816148 -11.68551,9.870491 -11.59126,10.033125 0.0531,0.09159 -0.0309,0.166542 -0.1865,0.166542 -0.25376,0 -2.64306,2.021569 -7.88307,6.669809 -0.97547,0.86531 -2.66004,2.35004 -3.74349,3.29939 -1.08344,0.94936 -3.59506,3.16683 -5.58137,4.92772 -1.98632,1.7609 -3.85773,3.37184 -4.15868,3.57986 -0.50506,0.3491 -2.73445,2.298619 -3.48656,3.048879 -0.27917,0.27847 -0.24996,0.2976 0.21361,0.13988 1.73915,-0.59171 9.13817,-2.71444 15.09234,-4.329899 3.79205,-1.02885 10.34196,-2.80716 14.55535,-3.95182 7.41311,-2.01391 20.15801,-5.37085 23.9671,-6.31281 7.40636,-1.83151 7.00407,-1.75162 7.00407,-1.39092 0,0.12838 -0.12163,0.23342 -0.2703,0.23342 -0.23795,0 -1.65658,0.62889 -6.07714,2.69402 -0.66211,0.30932 -2.23803,1.02926 -3.50204,1.59989 -1.26402,0.57062 -3.67714,1.68677 -5.36251,2.48033 -1.68535,0.79356 -4.04923,1.89371 -5.25306,2.44478 -1.20382,0.55108 -4.5034,2.15492 -7.33239,3.56411 -2.829,1.409179 -5.58685,2.777229 -6.12857,3.040099 -0.54173,0.26288 -2.36388,1.1782 -4.04923,2.03406 -1.68536,0.85584 -4.59096,2.29486 -6.45689,3.1978 -1.86593,0.90295 -4.4268,2.16602 -5.69082,2.80682 -1.26402,0.64082 -3.5294,1.77421 -5.03418,2.51866 -1.50478,0.74445 -3.77017,1.87769 -5.03419,2.5183 l -2.29821,1.16478 4.26811,0.004 c 2.50038,0.003 4.04148,-0.0742 3.72092,-0.18586 -0.5103,-0.17775 -0.51486,-0.19217 -0.0677,-0.21387 0.26377,-0.0128 0.53592,0.074 0.60481,0.19286 0.0689,0.11887 0.73954,0.17269 1.49035,0.11959 2.45541,-0.17365 45.75234,-0.34336 47.50486,-0.1862 0.93919,0.0842 1.62865,0.2225 1.53214,0.30729 -0.0965,0.0848 -1.11119,0.33937 -2.25482,0.56571 -1.14364,0.22634 -3.06429,0.61164 -4.26812,0.85621 -1.20382,0.24458 -2.53351,0.50477 -2.95484,0.57819 -0.42134,0.0734 -1.45554,0.29009 -2.29822,0.48148 -0.84267,0.19141 -2.07386,0.45776 -2.73597,0.5919 -0.6621,0.13414 -2.92748,0.66428 -5.03418,1.17807 -2.1067,0.51381 -4.07659,0.98739 -4.37755,1.0524 -0.30095,0.065 -2.27085,0.52874 -4.37755,1.0305 -6.34498,1.51122 -8.30884,1.92069 -16.0875,3.3543 -4.00364,0.73787 -9.02359,1.67555 -11.38164,2.12599 -0.96305,0.18395 -3.32693,0.60662 -5.25305,0.93925 -1.92612,0.33263 -3.99452,0.73951 -4.59643,0.90419 l -1.09439,0.2994 1.09439,0.36393 c 0.60191,0.20016 2.32558,0.84927 3.83036,1.44245 1.50478,0.5932 3.52392,1.37708 4.48698,1.74198 1.70415,0.64568 5.16069,2.15556 6.97906,3.04858 0.84951,0.4172 3.42847,1.51993 7.13855,3.05234 0.90286,0.37291 1.83857,0.68175 2.07934,0.68631 0.57527,0.0109 1.32725,0.60057 0.93665,0.73453 -0.15401,0.0529 -1.41271,-0.037 -2.79712,-0.19958 z m 27.57857,-0.33025 c -0.42133,-0.0958 -1.49108,-0.34683 -2.37722,-0.55789 -0.88612,-0.21106 -1.75307,-0.32565 -1.92654,-0.25466 -0.17347,0.071 -0.26641,0.0445 -0.20652,-0.0588 0.0599,-0.10333 -0.84609,-0.42973 -2.01326,-0.72535 -6.09433,-1.54349 -20.61119,-5.83619 -22.40723,-6.62591 -0.62032,-0.27274 -0.61806,-0.72579 0.002,-0.52875 0.20054,0.0637 1.5958,0.23774 3.10058,0.38685 4.01333,0.3977 3.99599,0.39529 7.44184,1.03496 4.47592,0.83088 4.94844,0.99602 14.00816,4.89567 1.98632,0.85499 4.03008,1.6741 4.54172,1.82026 1.38175,0.39475 1.23792,0.93237 -0.16416,0.61363 z M 65.583403,114.86056 c 0.405252,-0.50723 1.199495,-1.53139 1.764985,-2.27593 6.620601,-8.7168 11.119539,-14.369209 11.119539,-13.970469 0,0.36647 -2.199465,4.563909 -4.027951,7.686899 -0.986175,1.68434 -2.063818,3.56217 -2.394765,4.17295 -0.330945,0.61079 -0.868001,1.28729 -1.193457,1.50335 -0.325453,0.21606 -1.69994,1.16067 -3.054411,2.09912 -1.354471,0.93847 -2.572496,1.7063 -2.706719,1.7063 -0.134224,0 0.08753,-0.415 0.492779,-0.92222 z m 31.53077,-15.869009 c 0.391258,-0.66816 12.545187,-13.50003 16.269537,-17.177053 2.89872,-2.861883 4.52854,-4.418109 14.44669,-13.794229 1.20689,-1.140939 5.48749,-5.068154 9.51244,-8.727143 4.02494,-3.65899 9.72709,-8.858606 12.67142,-11.554703 2.94434,-2.696097 5.95237,-5.418591 6.6845,-6.049984 0.73214,-0.631394 2.32377,-2.049471 3.53695,-3.151283 1.21319,-1.101812 3.96199,-3.526414 6.10845,-5.388005 6.93195,-6.01198 16.6224,-14.574327 17.37639,-15.353549 0.51,-0.527071 5.48425,-5.036169 6.24953,-5.665128 0.3973,-0.326532 1.4617,-1.304981 2.36532,-2.1743293 1.82627,-1.757013 2.55565,-2.349543 2.70114,-2.194374 0.11541,0.123092 -1.23155,2.082968 -2.15333,3.1331593 -0.39685,0.45214 -0.58308,0.850788 -0.48031,1.028138 0.10325,0.178158 0.078,0.230424 -0.0656,0.135774 -0.12841,-0.08464 -0.55969,0.293041 -0.95839,0.839289 -0.39871,0.546251 -0.78423,1.045703 -0.85673,1.109896 -0.74341,0.658249 -6.95082,8.992678 -6.84496,9.190443 0.0775,0.144872 0.0651,0.190528 -0.0277,0.101455 -0.0928,-0.08907 -0.73654,0.541184 -1.43054,1.40057 -2.87301,3.557611 -10.66266,13.377955 -15.21892,19.18636 -1.76241,2.246748 -3.82924,4.872817 -4.59297,5.835709 -0.76372,0.962892 -2.84898,3.596757 -4.6339,5.853033 -1.78491,2.256277 -4.46062,5.617645 -5.94601,7.469708 -4.24733,5.295782 -4.80884,6.018445 -6.64792,8.555832 -2.46261,3.397671 -2.65936,3.457372 -1.70947,0.518725 0.35065,-1.084772 1.41729,-4.201874 2.37031,-6.926888 l 1.73276,-4.954568 -1.06404,0.903526 c -2.09097,1.775529 -4.99081,4.754779 -4.85543,4.98839 0.0758,0.130783 0.0392,0.172814 -0.0812,0.0934 -0.38092,-0.251076 -6.75225,6.248596 -16.88902,17.229239 -7.29,7.89685 -11.90727,12.74009 -12.0255,12.61401 -0.0501,-0.0535 0.66372,-1.62689 1.58628,-3.49655 0.92256,-1.86966 1.60722,-3.52045 1.52147,-3.66842 -0.0919,-0.15854 -0.0601,-0.20588 0.0774,-0.11526 0.13814,0.091 0.70021,-0.77503 1.37788,-2.12315 0.62952,-1.25231 1.54424,-3.06474 2.03271,-4.02763 l 0.88814,-1.750711 -0.86421,0.780163 c -0.47532,0.429088 -3.09926,2.494328 -5.83099,4.589418 -5.0283,3.85643 -6.53883,5.06428 -10.68297,8.54221 -1.26402,1.06083 -2.74144,2.28434 -3.28316,2.71894 -0.541727,0.43458 -1.149527,0.93272 -1.350674,1.10696 -0.201146,0.17425 -0.575007,0.43627 -0.830802,0.58226 -0.432342,0.24677 -0.44533,0.23172 -0.184527,-0.21365 z M 120.05467,61.049658 c 0,-0.246762 4.94393,-7.460685 6.72298,-9.80981 0.97643,-1.28932 1.07166,-1.416417 2.01279,-2.686179 0.51546,-0.695463 1.41163,-1.84618 1.99148,-2.557147 0.57986,-0.710967 1.67839,-2.091448 2.44119,-3.067734 1.57124,-2.01099 8.07723,-10.06819 8.27379,-10.246494 0.0707,-0.06419 0.6678,-0.79713 1.32676,-1.628748 0.65895,-0.831622 1.98605,-2.463941 2.94912,-3.627381 0.96305,-1.163439 2.71986,-3.319178 3.90401,-4.790531 1.18416,-1.471351 2.60138,-3.230445 3.1494,-3.909093 0.54801,-0.678652 1.3941,-1.755339 1.88021,-2.392642 0.48611,-0.637303 0.9649,-1.15873 1.06401,-1.15873 0.27226,0 0.22113,0.190334 -0.2377,0.884807 -0.80549,1.219161 -5.12702,9.267521 -5.12702,9.548497 0,0.156123 -0.0646,0.241268 -0.14362,0.18921 -0.079,-0.05206 -0.59818,0.71412 -1.15377,1.702623 -2.41247,4.292171 -5.07917,9.110406 -5.55525,10.037293 -0.28356,0.552056 -1.08908,2.075176 -1.79005,3.384712 -5.40071,10.089524 -7.3631,13.842954 -7.31646,13.994034 0.0297,0.09629 -0.0937,0.175071 -0.27428,0.175071 -0.425,0 -0.4362,0.109321 0.33291,-3.249652 0.36367,-1.588291 0.60345,-3.108775 0.53285,-3.378856 -0.10245,-0.391923 -0.082,-0.42037 0.1015,-0.140914 0.19455,0.296355 0.2355,0.278426 0.26656,-0.116714 0.065,-0.827894 0.0878,-0.928095 0.29141,-1.283856 0.17812,-0.311237 0.15502,-0.311237 -0.20791,0 -0.22456,0.192578 -0.89449,0.853498 -1.48872,1.46871 -1.25937,1.303821 -7.02138,6.716891 -9.96017,9.357003 -1.7785,1.597735 -1.99779,1.874684 -1.75102,2.211445 0.25245,0.34453 0.2415,0.351003 -0.10432,0.06162 -0.33636,-0.281471 -0.43559,-0.263541 -0.76607,0.13843 -0.39474,0.480117 -1.36461,1.113402 -1.36461,0.891028 z"
       id="path1" />
  </g>
</svg>
