<?xml version="1.0" encoding="UTF-8" standalone="no"?>
<!-- Created with Inkscape (http://www.inkscape.org/) -->

<svg
   width="174.82076mm"
   height="112.19377mm"
   viewBox="0 0 174.82076 112.19377"
   version="1.1"
   id="svg1"
   xmlns="http://www.w3.org/2000/svg"
   xmlns:svg="http://www.w3.org/2000/svg">
  <defs
     id="defs1" />
  <g
     id="layer1"
     transform="translate(-11.553804,-166.98888)">
    <path
       style="display:inline;fill:#000000;stroke-width:0.226036"
       d="m 20.353334,278.72452 c 0.293093,-0.98483 6.455691,-27.40156 6.404495,-27.45364 -0.09163,-0.0932 -3.265772,0.5356 -4.65094,0.92137 -0.718371,0.20004 -1.367659,0.28851 -1.442863,0.19656 -0.134108,-0.16396 1.556487,-7.84991 1.771252,-8.05265 0.1845,-0.17418 16.85357,-0.41966 16.85357,-0.24823 0,0.29707 -2.255684,5.56281 -2.512898,5.86623 -0.148723,0.17541 -1.044155,0.35964 -2.154293,0.44319 l -1.899783,0.14299 -0.234277,0.92788 c -0.128853,0.51035 -0.371832,1.67646 -0.539954,2.59138 -0.538824,2.9323 -0.977912,5.06372 -1.97769,9.60005 -2.044178,9.27513 -1.712703,8.24907 -3.11455,9.64091 -1.589379,1.57805 -6.358494,5.88207 -6.517679,5.88207 -0.06639,0 -0.05937,-0.20614 0.0156,-0.45811 z m 68.182959,-2.94717 c 0,-0.0663 0.143672,-0.82421 0.319269,-1.68407 0.175596,-0.85985 0.710703,-3.71674 1.189122,-6.34864 0.47842,-2.6319 1.415485,-7.779 2.082366,-11.43799 0.666878,-3.65899 1.379099,-7.6666 1.582711,-8.90578 l 0.370204,-2.2531 1.332117,-0.2718 c 0.732666,-0.14951 2.006297,-0.48234 2.8303,-0.73962 1.710736,-0.53416 2.228058,-0.45089 2.029698,0.32666 -0.0733,0.28731 -0.533601,2.67574 -1.022897,5.30765 -0.489296,2.63191 -0.931885,4.94284 -0.983514,5.13542 -0.08181,0.30527 0.226428,0.3232 2.405471,0.13994 l 2.49936,-0.21018 0.48429,-2.82438 c 0.26637,-1.55341 0.69186,-3.97985 0.94553,-5.39209 l 0.46123,-2.56771 2.40766,-1.09613 c 1.3242,-0.60287 2.76085,-1.25939 3.19254,-1.45893 1.05385,-0.48709 1.07668,-0.47626 0.83319,0.39585 -0.29685,1.0632 -5.66732,29.78581 -5.66732,30.31021 0,0.33667 -0.41206,0.56163 -1.91518,1.04559 -1.05335,0.33912 -2.38603,0.82951 -2.96151,1.08971 -0.57547,0.26023 -1.096495,0.41962 -1.15782,0.35423 -0.0613,-0.0654 0.34362,-2.73205 0.89988,-5.92588 0.55625,-3.19382 1.06772,-6.21755 1.13659,-6.7194 l 0.12521,-0.91245 -1.5109,0.15215 c -0.831005,0.0837 -1.913078,0.1529 -2.404607,0.15381 l -0.89369,0.003 -0.470794,2.39264 c -0.258936,1.31595 -0.721582,3.86116 -1.028102,5.65602 -0.306519,1.79487 -0.645772,3.35772 -0.753896,3.47304 -0.108121,0.11531 -1.114717,0.60173 -2.236878,1.08091 -1.122161,0.47918 -2.508144,1.09221 -3.079961,1.36231 -0.571818,0.27007 -1.039669,0.43672 -1.039669,0.37036 z M 50.67048,275.36539 c 0,-0.1912 0.187967,-1.2225 0.417706,-2.29181 0.229738,-1.06934 0.972893,-4.8329 1.651457,-8.36351 0.678564,-3.5306 1.626832,-8.37604 2.107259,-10.76765 0.480429,-2.39161 0.972477,-5.01768 1.093442,-5.83571 0.120965,-0.81803 0.376638,-2.09133 0.568164,-2.82955 l 0.348228,-1.34221 h 5.468231 5.46823 l 1.745793,1.80907 c 0.960186,0.99498 1.834538,1.98442 1.943008,2.19873 0.130429,0.25768 -0.02905,1.52249 -0.470939,3.73485 -0.367487,1.83986 -0.757921,3.91245 -0.867631,4.60576 -0.40451,2.55624 -0.456647,2.6294 -2.731927,3.83434 -1.141923,0.60474 -2.076226,1.21879 -2.076226,1.36457 0,0.14578 0.640217,2.64871 1.422704,5.56209 0.782487,2.91337 1.422704,5.36572 1.422704,5.44966 0,0.0839 -0.342659,0.15262 -0.761464,0.15262 -0.418805,0 -1.49499,0.2626 -2.391524,0.58356 -0.896535,0.32097 -1.77031,0.58358 -1.941724,0.58358 -0.219131,0 -0.652017,-1.33407 -1.458079,-4.4935 -1.775981,-6.96111 -1.538682,-6.29612 -2.186427,-6.12705 -0.309692,0.0809 -0.671312,0.27139 -0.8036,0.42342 -0.132285,0.15202 -0.566799,2.08808 -0.965585,4.30233 l -0.725064,4.02594 -2.536454,1.43024 c -1.395051,0.78664 -2.807316,1.63447 -3.138369,1.88406 -0.488508,0.36827 -0.601913,0.38827 -0.601913,0.10617 z m 11.376464,-18.4486 c 1.140794,-0.43453 2.152965,-0.93339 2.249271,-1.1086 0.391867,-0.71287 1.195711,-5.22368 0.982316,-5.51232 -0.143612,-0.19424 -0.86533,-0.29179 -2.158831,-0.29179 -1.068705,0 -1.943099,0.0359 -1.943099,0.0798 0,0.16672 -1.33345,6.82546 -1.444806,7.2148 -0.155562,0.54391 -0.08501,0.53226 2.315149,-0.38194 z m 6.133739,18.03374 c 0,-0.29471 4.470823,-13.00579 4.948619,-14.06953 0.167444,-0.37278 0.304472,-0.79295 0.304511,-0.93371 3.8e-5,-0.14075 0.968488,-2.82948 2.15211,-5.97492 1.183621,-3.14545 2.425366,-6.52547 2.75943,-7.51114 0.599471,-1.76878 0.622059,-1.79826 1.732965,-2.26225 3.510641,-1.46628 7.26775,-2.75515 7.396338,-2.53732 0.0782,0.13247 0.152436,5.50387 0.164962,11.93643 0.01252,6.43256 0.08581,13.23443 0.162849,15.11528 l 0.140077,3.41975 -0.699471,0.38573 c -0.826361,0.45576 -4.567639,1.99521 -4.848833,1.99521 -0.107145,0 -0.221815,-1.71341 -0.254822,-3.80757 l -0.06001,-3.80756 -2.780184,0.48121 c -1.5291,0.26466 -2.874761,0.58626 -2.990358,0.71464 -0.115593,0.12839 -0.465576,1.13355 -0.777739,2.23371 l -0.56757,2.00024 -1.157667,0.38919 c -0.636717,0.21404 -2.071098,0.86331 -3.187513,1.4428 -2.152446,1.11726 -2.437692,1.20968 -2.437692,0.78981 z m 12.483689,-12.85782 1.547936,-0.2831 -0.0449,-4.74693 c -0.0247,-2.6108 -0.113606,-4.66306 -0.197574,-4.56054 -0.114153,0.13936 -2.416946,6.53537 -3.449815,9.58186 -0.123199,0.36338 0.197813,0.36469 2.144355,0.009 z m 43.330088,12.56587 c 0,-0.0489 0.58435,-2.96996 1.29855,-6.49127 0.71421,-3.52129 1.44842,-7.28909 1.63159,-8.37287 0.18317,-1.08378 0.79098,-4.28144 1.35068,-7.10593 0.5597,-2.82448 1.1048,-5.59248 1.21134,-6.15112 0.10654,-0.55861 0.29042,-1.39895 0.40863,-1.86742 l 0.21493,-0.85174 5.09533,0.0562 c 2.80243,0.0309 5.39633,0.0572 5.76421,0.0583 0.56874,0.003 0.92106,0.31333 2.35294,2.08023 1.09667,1.35328 1.68055,2.26924 1.67402,2.62608 -0.006,0.3014 -0.42413,2.70137 -0.93023,5.33327 l -0.92021,4.78529 -2.07933,1.09902 c -1.14364,0.60444 -2.15089,1.12965 -2.23834,1.16715 -0.0875,0.0375 0.1215,1.11854 0.46434,2.40239 0.34285,1.28385 0.88954,3.38471 1.21488,4.66857 0.32534,1.28385 0.68273,2.63884 0.7942,3.01103 0.38807,1.29586 0.28554,1.54082 -0.6449,1.54082 -0.46617,0 -1.6019,0.26261 -2.52385,0.58357 -1.76604,0.61483 -2.19373,0.69984 -2.02101,0.4018 0.11151,-0.19244 -1.22857,-5.89357 -2.12457,-9.03865 -0.50629,-1.77718 -0.56134,-1.86505 -1.13899,-1.81836 -0.33385,0.027 -0.69386,0.14172 -0.80004,0.25495 -0.18373,0.19594 -1.70586,7.93126 -1.70751,8.67747 -4.4e-4,0.23093 -0.67214,0.63289 -1.91518,1.14623 -1.05292,0.43482 -2.43441,1.03882 -3.06998,1.34221 -1.16894,0.55801 -1.3615,0.62346 -1.3615,0.46273 z m 11.35567,-17.89172 c 0.98619,-0.28379 1.98265,-0.68727 2.21435,-0.89661 0.2804,-0.25331 0.60621,-1.23934 0.97423,-2.94831 0.54706,-2.54047 0.54839,-2.57175 0.12562,-2.94858 -0.32699,-0.29143 -0.85299,-0.37362 -2.2408,-0.35013 l -1.81351,0.0307 -0.68096,3.29804 c -0.37452,1.81389 -0.74888,3.58665 -0.83191,3.93942 -0.11651,0.49513 -0.0812,0.61292 0.15448,0.51644 0.16798,-0.0687 1.11231,-0.35719 2.0985,-0.64099 z m 11.52881,16.17156 c 0.15907,-0.8666 0.69136,-3.67649 1.18285,-6.24421 0.4915,-2.56771 1.14876,-6.03412 1.46059,-7.70313 0.74567,-3.99116 1.6148,-8.25382 1.77196,-8.69061 0.0994,-0.27617 -0.007,-0.32162 -0.50924,-0.21811 -0.34913,0.0719 -1.54585,0.19992 -2.65939,0.28445 l -2.02462,0.15369 0.005,-0.78341 c 0.003,-0.43088 0.10976,-1.25612 0.23737,-1.83386 0.12761,-0.57773 0.29757,-1.73321 0.37769,-2.56771 l 0.14567,-1.51729 8.27247,-0.0419 8.27248,-0.0419 -0.16082,0.50875 c -0.0884,0.27981 -0.46248,1.71474 -0.83118,3.18873 -0.56527,2.25988 -0.73888,2.68358 -1.10757,2.70286 -0.24047,0.0126 -1.24706,0.0408 -2.23685,0.0628 l -1.79962,0.04 -0.3411,1.25129 c -0.18759,0.68822 -0.82484,3.81325 -1.4161,6.9445 -1.20628,6.38833 -2.36707,12.27347 -2.53167,12.8355 -0.0601,0.20509 -0.51717,0.50322 -1.0158,0.66253 -0.49862,0.15935 -1.83691,0.80564 -2.97399,1.43622 -1.13707,0.63059 -2.14398,1.14651 -2.23756,1.14651 -0.0936,0 -0.04,-0.70904 0.11908,-1.57565 z m -111.867535,-0.4616 c 0.08287,-0.48434 0.640734,-3.24408 1.239699,-6.13275 0.598964,-2.88867 1.271613,-6.35509 1.494771,-7.70313 0.223162,-1.34805 0.712304,-3.9216 1.086987,-5.719 0.374684,-1.7974 0.881799,-4.26591 1.126924,-5.48556 0.245126,-1.21967 0.517907,-2.53147 0.606178,-2.9151 l 0.160496,-0.69756 4.15122,0.10702 c 2.283168,0.0589 5.333157,0.10741 6.777749,0.10788 1.444591,0 2.687993,0.0934 2.763114,0.20657 0.07512,0.11315 -0.100775,0.95622 -0.390884,1.87353 -0.290107,0.91728 -0.678668,2.27179 -0.863468,3.01001 l -0.335999,1.34221 h -3.800075 c -3.431665,0 -3.810647,0.0396 -3.909111,0.4085 -0.05997,0.22468 -0.272039,1.24884 -0.471263,2.27593 -0.199224,1.02708 -0.411658,2.05793 -0.472078,2.29077 -0.10334,0.39827 0.11205,0.42045 3.634659,0.37433 2.05948,-0.027 3.795759,0.005 3.858397,0.0724 0.11497,0.12262 -2.081199,3.70922 -3.012197,4.9193 -0.484034,0.62911 -0.577922,0.65371 -2.473034,0.64803 -3.437019,-0.0102 -3.204001,-0.19266 -3.774996,2.95456 -0.270333,1.48999 -0.443758,2.76003 -0.385391,2.82229 0.05837,0.0623 1.904025,-2.4e-4 4.101459,-0.13882 2.197434,-0.13861 4.036913,-0.20769 4.087732,-0.15348 0.134501,0.14344 -2.546233,5.8683 -2.837932,6.06056 -0.135497,0.0893 -3.006492,0.20507 -6.379992,0.25725 l -6.133636,0.0948 z m 73.223875,0.73749 c 0,-0.26798 2.88288,-15.67842 3.83983,-20.5258 0.27879,-1.41224 0.77952,-3.98579 1.11274,-5.71899 0.33321,-1.73321 0.67538,-3.20381 0.76038,-3.268 0.085,-0.0642 1.46909,-0.0377 3.07577,0.0588 1.60667,0.0965 4.64489,0.14905 6.75158,0.11672 l 3.83036,-0.0589 -0.0627,0.70029 c -0.0583,0.65143 -0.48068,2.79267 -0.95539,4.84364 l -0.2026,0.87536 h -3.58879 c -1.97384,0 -3.82573,0.0961 -4.11534,0.21348 -0.44673,0.18115 -0.5849,0.50842 -0.91155,2.15922 -0.21176,1.07015 -0.43593,2.18207 -0.49817,2.47093 l -0.11316,0.52521 h 3.85587 c 2.68175,0 3.85588,0.079 3.85588,0.25937 0,0.33999 -2.10378,4.04986 -2.70583,4.77158 -0.44251,0.53044 -0.61932,0.5638 -3.25841,0.61503 -2.29573,0.0446 -2.80765,0.11793 -2.88724,0.41373 -0.23887,0.88783 -1.03804,5.41213 -0.96737,5.47654 0.0434,0.0394 1.88366,-0.0322 4.0896,-0.15928 2.29221,-0.13202 4.08529,-0.14346 4.18463,-0.0266 0.14281,0.1679 -1.67288,5.4643 -1.98872,5.80114 -0.0525,0.0559 -2.89864,0.16671 -6.3248,0.24608 -3.42615,0.0794 -6.35249,0.18571 -6.50297,0.23634 -0.15047,0.0506 -0.27359,0.0389 -0.27359,-0.0259 z m 48.80969,-0.37888 c 0,-0.13363 0.3337,-0.72972 0.74157,-1.32466 0.88433,-1.28992 2.47762,-3.76351 6.86138,-10.65226 1.7974,-2.82449 4.17086,-6.47594 5.27436,-8.11435 1.1035,-1.63839 2.00636,-3.02324 2.00636,-3.07745 0,-0.0543 -0.22162,-0.0581 -0.49248,-0.009 -1.11533,0.20338 -7.66189,0.59774 -7.78277,0.46884 -0.072,-0.0768 0.0288,-0.73974 0.22394,-1.47333 0.19511,-0.73359 0.56932,-2.14091 0.83159,-3.12738 l 0.47684,-1.79357 8.06999,-0.0199 c 4.43849,-0.0109 8.23101,-0.0858 8.42782,-0.1663 0.58698,-0.24021 0.32667,0.3065 -1.74102,3.65655 -2.26194,3.66477 -9.84146,15.76904 -11.23672,17.94471 -0.52485,0.81842 -0.90885,1.53647 -0.85332,1.59566 0.0555,0.0592 1.36471,-0.004 2.90932,-0.13872 4.69296,-0.41172 8.17089,-0.55299 8.17089,-0.33189 0,0.30182 -10.43708,5.8361 -11.70995,6.20924 -0.24077,0.0706 -2.26587,0.19762 -4.50023,0.28233 -2.23437,0.0847 -4.42588,0.19004 -4.87002,0.23406 -0.46165,0.0458 -0.80755,-0.024 -0.80755,-0.16291 z M 11.566872,246.9109 c -0.06781,-0.11701 0.135084,-0.50038 0.450877,-0.85189 0.315791,-0.35152 0.498918,-0.7194 0.406946,-0.81749 -0.09197,-0.0981 -0.04666,-0.14333 0.100686,-0.10052 0.147348,0.0428 0.68907,-0.46499 1.203826,-1.12841 0.514753,-0.66341 1.329051,-1.71383 1.809546,-2.33429 0.480495,-0.62042 2.302651,-2.95175 4.049234,-5.18066 4.076062,-5.20174 3.76667,-4.69938 4.47656,-7.26867 0.336988,-1.21967 0.890365,-3.16296 1.229725,-4.31844 0.339361,-1.15546 0.726824,-2.55384 0.861034,-3.10751 0.134207,-0.55367 0.295512,-1.1498 0.358455,-1.32473 0.123088,-0.34208 -0.335565,-0.31867 -2.392956,0.12218 -0.577742,0.12378 -1.088973,0.22508 -1.136068,0.22508 -0.0471,0 0.159081,-0.76157 0.458167,-1.69236 0.681376,-2.12054 3.705922,-12.92389 4.362206,-15.58135 0.269502,-1.09128 1.177055,-4.55768 2.016788,-7.70313 0.83973,-3.14545 1.665178,-6.40028 1.834327,-7.23295 0.306223,-1.50746 0.311283,-1.51467 1.179396,-1.6789 0.479516,-0.0907 1.654847,-0.171 2.611843,-0.1784 l 1.739992,-0.0134 -1.300978,-1.2255 c -2.29065,-2.15775 -4.891305,-4.81381 -10.567793,-10.79289 -3.048859,-3.21139 -5.63435,-5.81263 -5.745536,-5.78053 -0.111188,0.0321 -0.177533,-0.0225 -0.147438,-0.12123 0.07746,-0.25424 -0.764428,-1.35426 -1.152911,-1.5064 -0.270176,-0.10581 -0.261309,-0.15498 0.05297,-0.29367 0.229872,-0.10145 0.657815,0.0158 1.094388,0.29991 0.394299,0.25657 1.06164,0.67386 1.482979,0.9273 0.421338,0.25346 2.314995,1.44556 4.208124,2.64913 1.893129,1.20357 4.355502,2.75233 5.471938,3.44168 6.464389,3.99148 7.853169,4.8555 9.119833,5.67389 0.769523,0.49719 1.432947,0.86791 1.474276,0.82383 0.04133,-0.0441 -0.135431,-0.78345 -0.392796,-1.64304 -0.257363,-0.8596 -0.419627,-1.61443 -0.360587,-1.67739 0.05904,-0.063 1.182107,0.63729 2.495702,1.55614 5.747324,4.02016 6.582905,4.59192 7.204177,4.92955 1.281529,0.69646 1.417732,1.04997 1.968305,5.10861 0.284746,2.09905 0.773642,5.60218 1.086438,7.78474 0.312796,2.18256 0.762208,5.38636 0.998692,7.11956 0.236486,1.73321 0.504663,3.66837 0.595949,4.30038 l 0.165975,1.14912 4.036397,-10.71967 c 5.895643,-15.65737 5.605263,-14.9335 5.946695,-14.82415 0.40746,0.13049 6.534247,1.08312 8.183174,1.27236 3.362736,0.38593 10.177806,1.51761 10.177806,1.69007 0,0.0476 -0.483695,0.6563 -1.07488,1.35251 -1.306742,1.53888 -1.462793,2.23398 -1.655887,7.37596 -0.07473,1.98998 -0.17552,4.2484 -0.223984,5.01872 -0.10196,1.62055 -0.211908,4.49118 -0.652671,17.04025 -0.175863,5.00704 -0.376274,10.62683 -0.445358,12.48842 l -0.125608,3.38471 0.775927,0.93117 c 0.951717,1.14212 0.982546,1.51983 0.124054,1.51983 -0.785983,0 -4.80119,0.68318 -10.292001,1.75116 -6.597536,1.28324 -7.750377,1.53296 -8.153188,1.76602 -0.258115,0.14935 -0.383036,0.13826 -0.383036,-0.034 0,-0.27432 1.476148,-2.00867 4.798173,-5.63745 l 2.079001,-2.27098 -0.702617,-0.26121 c -0.80564,-0.29951 -0.784303,-0.12579 -0.48633,-3.95974 0.244598,-3.14715 1.102329,-18.9045 1.085497,-19.94164 l -0.01147,-0.70743 -0.371556,0.56058 c -0.204355,0.30831 -0.700508,1.20117 -1.10256,1.98414 -0.707018,1.37685 -2.07694,3.89856 -5.84576,10.76069 -3.836124,6.9847 -6.768616,12.45105 -8.037338,14.98216 -0.728282,1.45293 -1.409088,2.64169 -1.512903,2.64169 -0.103816,0 -0.277273,-0.23635 -0.385462,-0.52522 -0.266207,-0.71078 -2.766721,-9.54168 -3.156101,-11.1462 -0.17136,-0.70612 -0.851158,-3.22714 -1.510661,-5.60228 -2.128185,-7.66446 -3.984888,-14.86058 -4.155718,-16.10655 -0.08708,-0.63516 -0.04043,-0.78243 -1.183363,3.73484 -0.308594,1.21967 -0.747157,2.88478 -0.974585,3.70027 -0.227427,0.81545 -0.453156,1.70832 -0.501617,1.98413 -0.170926,0.97277 -1.047255,4.52111 -2.228036,9.02159 -0.656845,2.50352 -1.351393,5.18211 -1.543441,5.95243 -0.192048,0.77031 -0.436509,1.70512 -0.54325,2.07732 -0.242081,0.84417 -0.246088,1.13579 -0.01351,0.9825 0.09932,-0.0655 1.281255,-0.42596 2.62653,-0.8011 2.634002,-0.73453 2.997424,-0.62198 1.61503,0.50018 -0.852475,0.69199 -5.659089,3.8938 -5.845449,3.8938 -0.05964,0 -1.462826,0.80138 -3.118197,1.78085 -1.65537,0.97947 -3.748476,2.17877 -4.651346,2.66517 -9.491976,5.11334 -13.829651,7.34459 -13.932692,7.16678 z m 165.943148,-7.57066 c -2.37421,-0.57174 -16.31653,-4.88953 -20.62064,-6.38601 -1.83113,-0.63666 -3.39959,-1.15756 -3.48548,-1.15756 -0.0859,0 0.0428,0.23635 0.28604,0.52522 0.52192,0.61989 2.47952,3.56776 2.47952,3.7338 0,0.0631 -0.90453,0.13427 -2.01005,0.15813 -1.10554,0.0238 -2.06586,0.0793 -2.13406,0.12332 -0.0682,0.0439 -1.69992,0.14725 -3.62604,0.2295 -1.92613,0.0822 -4.09302,0.19396 -4.81532,0.24821 -0.72229,0.0543 -2.3967,0.16165 -3.72091,0.2387 -2.10856,0.12267 -6.39005,0.45605 -16.52525,1.28677 -7.17021,0.58771 -7.08111,0.58969 -6.6177,-0.14636 0.21219,-0.33701 4.60758,-3.93389 6.33771,-5.18633 l 1.36159,-0.98568 -1.74463,-1.77759 c -0.95955,-0.9777 -1.74443,-1.895 -1.7442,-2.03844 4.4e-4,-0.28596 0.27119,-0.41072 7.44141,-3.42977 2.70861,-1.14046 5.09577,-2.18078 5.30481,-2.3118 0.57177,-0.35841 0.88871,-0.28733 0.7592,0.17026 -0.0636,0.22468 -0.67075,1.97037 -1.34926,3.8793 -0.67852,1.90895 -1.19981,3.50691 -1.15845,3.55103 0.0783,0.0835 4.77352,-1.07267 11.8325,-2.91365 l 4.11661,-1.07361 0.75159,-2.41809 c 0.74776,-2.40576 0.78004,-2.83404 0.21361,-2.83404 -0.47525,0 -22.15265,-7.7146 -22.55161,-8.02572 -0.32612,-0.25431 -0.33827,-0.59933 -0.12459,-3.53938 0.13021,-1.79168 0.33314,-4.70611 0.45095,-6.4765 l 0.21421,-3.2189 1.70044,-2.78039 c 0.93525,-1.52921 1.89744,-3.11768 2.1382,-3.52992 0.40997,-0.70195 0.84075,-0.89308 6.78521,-3.01044 9.12159,-3.24903 19.1156,-7.03778 22.8571,-8.66517 1.13505,-0.4937 2.11074,-0.8475 2.16821,-0.78621 0.0914,0.0974 -0.19815,0.64619 -1.50287,2.84854 -0.50049,0.84483 -0.12176,0.84404 1.46188,-0.003 2.1377,-1.14344 6.75679,-3.21111 11.10824,-4.97244 2.05873,-0.83331 4.28487,-1.76324 4.94698,-2.06652 0.6621,-0.30328 2.04102,-0.86786 3.06428,-1.25464 1.02325,-0.38677 2.4741,-0.97368 3.2241,-1.30423 1.52928,-0.67402 1.5912,-0.68885 1.5912,-0.38123 0,0.12089 -0.61559,0.72361 -1.36798,1.3394 -1.78401,1.46009 -1.94093,1.59438 -3.64408,3.11839 -0.79466,0.71108 -2.08504,1.80745 -2.86752,2.43639 -0.78249,0.62893 -1.96443,1.62892 -2.62653,2.2222 -0.66211,0.59327 -2.28728,1.96417 -3.61149,3.04644 -3.61914,2.9579 -7.11373,6.7908 -9.50543,10.42564 l -2.02895,3.08354 -3.86342,1.30723 c -2.12488,0.71897 -4.50573,1.56353 -5.29077,1.8768 -1.99692,0.79689 -2.03701,0.77938 -1.50233,-0.6559 0.25109,-0.67403 0.74475,-2.11837 1.09702,-3.20964 0.35228,-1.09128 0.74258,-2.17716 0.86735,-2.41305 0.27407,-0.51819 0.99131,-0.72987 -6.80484,2.00837 -3.31052,1.16275 -6.14225,2.21502 -6.29273,2.33839 -0.16948,0.13894 -0.2819,0.85748 -0.29541,1.88807 -0.012,0.91508 -0.0898,1.92392 -0.17282,2.24189 -0.14999,0.57425 -0.0969,0.59721 7.95613,3.44381 4.45892,1.57616 10.84123,3.83236 14.18291,5.01379 4.72892,1.67188 6.0147,2.20904 5.80025,2.42316 -0.30795,0.3075 -7.28151,2.66454 -7.88152,2.66394 -0.21067,-2.2e-4 -0.38303,0.085 -0.38303,0.18954 0,0.10446 0.70453,2.07401 1.56562,4.37678 0.8611,2.30275 1.56698,4.32347 1.56863,4.49044 0.003,0.35026 0.68827,0.90822 2.92207,2.38082 1.55451,1.02481 5.829,3.91906 8.34059,5.64743 2.13329,1.46805 5.31632,3.45628 5.53327,3.45628 0.1136,0 0.20655,0.15757 0.20655,0.35015 0,0.36104 -0.0286,0.36816 -0.76607,0.19056 z m -87.029715,-2.11295 c -0.796723,-0.74008 -2.799544,-2.76369 -4.450713,-4.4969 l -3.002124,-3.15129 0.128153,-2.13169 c 0.07048,-1.17242 0.323921,-4.06109 0.563196,-6.41927 0.610851,-6.02028 0.597001,-5.88088 1.098631,-11.05702 0.248844,-2.56771 0.557512,-5.56143 0.685932,-6.6527 l 0.233492,-1.98414 4.190399,-4.45233 4.190399,-4.45233 1.313266,-0.23892 c 0.722295,-0.13141 2.482695,-0.528 3.912008,-0.88131 l 2.598746,-0.64239 1.3605,1.43804 1.36048,1.43803 0.85608,-0.5154 c 0.47083,-0.28349 1.21345,-0.76807 1.65027,-1.07686 l 0.79421,-0.56144 1.94176,0.35448 c 1.06797,0.19497 2.60135,0.42443 3.4075,0.50992 l 1.46573,0.15543 1.92687,2.34474 c 2.66498,3.24293 4.40777,5.49851 4.99414,6.46362 l 0.49638,0.817 -0.52506,4.20171 c -0.28879,2.31094 -0.72047,5.98744 -0.9593,8.16999 -0.83126,7.59649 -1.30596,11.67529 -1.42926,12.28051 -0.12938,0.63501 -7.33833,8.48073 -8.25815,8.98757 -0.26969,0.1486 -1.37681,0.45236 -2.46025,0.675 -1.08345,0.22267 -2.99107,0.65809 -4.23917,0.96761 -2.15555,0.53455 -2.40236,0.54916 -4.924751,0.29165 -2.506811,-0.25593 -2.759619,-0.24169 -4.515927,0.25464 -2.976572,0.84121 -2.783173,0.86913 -4.403437,-0.63595 z m 10.860325,-9.98095 c 1.08344,-0.47551 2.95485,-1.28544 4.15868,-1.7998 1.20382,-0.51438 2.30566,-1.03659 2.44853,-1.16044 0.14286,-0.12389 0.31656,-0.76936 0.38599,-1.4344 0.2914,-2.79115 1.00671,-9.85018 1.31475,-12.97451 0.18231,-1.84905 0.37824,-3.41181 0.43539,-3.47276 0.094,-0.10022 -0.49989,-0.95222 -2.69215,-3.86235 -0.40372,-0.53591 -0.8539,-1.15467 -1.00041,-1.37503 -0.24787,-0.37282 -0.43262,-0.34518 -2.65858,0.39754 -1.31571,0.43901 -3.30631,1.09199 -4.423564,1.45109 -1.577854,0.50712 -2.052143,0.75711 -2.12447,1.11974 -0.176777,0.8863 -1.26832,10.79197 -2.082211,18.89592 -0.128291,1.27739 -0.272993,2.36489 -0.321565,2.41669 -0.04857,0.0518 0.718007,0.8062 1.703507,1.67644 1.683146,1.48628 1.825003,1.56418 2.339009,1.28434 0.300955,-0.16382 1.433644,-0.68695 2.517094,-1.16247 z"
       id="path2" />
  </g>
</svg>
